<svg width="32" height="39" viewBox="0 0 32 39" fill="none" xmlns="http://www.w3.org/2000/svg">
<path fill-rule="evenodd" clip-rule="evenodd" d="M22.3703 22.3268C24.6601 22.6947 26.5361 23.251 27.7443 23.9123C29.0318 24.6165 29.6363 25.5136 29.6363 26.3611C29.6363 27.2086 29.0318 28.1057 27.7443 28.8099C25.542 30.0151 21.1101 30.875 16 30.875C10.8887 30.875 6.45787 30.0151 4.25569 28.8099C2.96819 28.1057 2.36365 27.2086 2.36365 26.3611C2.36365 25.5136 2.96819 24.6165 4.25569 23.9123C5.4625 23.251 7.33991 22.6958 9.62966 22.3268C10.0592 22.9068 10.5012 23.4519 10.9365 23.9552C8.98875 24.2012 7.3103 24.586 6.06026 25.0701C5.40231 25.3251 4.87277 25.6005 4.51367 25.9052C4.33299 26.0598 4.18186 26.1907 4.18186 26.3611C4.18186 26.5315 4.33299 26.6624 4.51367 26.817C4.87277 27.1217 5.40231 27.397 6.06026 27.652C8.3023 28.5198 11.9215 29.0694 16 29.0694C20.0786 29.0694 23.6978 28.5198 25.9398 27.652C26.5978 27.397 27.1273 27.1217 27.4864 26.817C27.6671 26.6624 27.8182 26.5315 27.8182 26.3611C27.8182 26.1907 27.6671 26.0598 27.4864 25.9052C27.1273 25.6005 26.5978 25.3251 25.9398 25.0701C24.6898 24.586 23.0115 24.2012 21.0636 23.9552C21.4988 23.4508 21.9408 22.9057 22.3703 22.3268ZM16 3.79169C10.983 3.79169 6.90907 7.2832 6.90907 12.8195C6.90907 15.8935 8.27952 18.8217 9.95111 21.2198C12.3909 24.7202 15.442 27.0732 15.442 27.0732C15.7704 27.3272 16.2306 27.3272 16.5579 27.0732C16.5579 27.0732 19.609 24.7193 22.0488 21.2198C23.7204 18.8218 25.0909 15.8932 25.0909 12.8195C25.0909 7.2832 21.017 3.79169 16 3.79169ZM16 5.59724C20.0137 5.59724 23.2727 8.39022 23.2727 12.8195C23.2727 15.5233 22.025 18.0839 20.5545 20.1928C18.8977 22.5693 16.9397 24.3794 16 25.1874C15.0603 24.3805 13.1023 22.5693 11.4456 20.1928C9.97511 18.0837 8.72737 15.5232 8.72737 12.8195C8.72737 8.39022 11.9863 5.59724 16 5.59724ZM16 8.30558C13.4909 8.30558 11.4545 10.3278 11.4545 12.8195C11.4545 15.3111 13.4909 17.3334 16 17.3334C18.5091 17.3334 20.5454 15.3111 20.5454 12.8195C20.5454 10.3278 18.5091 8.30558 16 8.30558ZM16 10.1111C17.5057 10.1111 18.7273 11.3242 18.7273 12.8195C18.7273 14.3147 17.5057 15.5278 16 15.5278C14.4943 15.5278 13.2727 14.3147 13.2727 12.8195C13.2727 11.3242 14.4943 10.1111 16 10.1111Z" fill="#A89859"/>
</svg>
