<svg width="53" height="64" viewBox="0 0 53 64" fill="none" xmlns="http://www.w3.org/2000/svg">
<g clip-path="url(#clip0_13_101)" filter="url(#filter0_d_13_101)">
<path fill-rule="evenodd" clip-rule="evenodd" d="M26.5 21.4667C26.5 23.6885 25.3859 25.6513 23.6836 26.8316C24.2474 27.0506 24.787 27.3175 25.2976 27.6274L25.4753 27.1408L25.4837 27.1167C25.5169 27.0217 25.6021 26.7775 25.7719 26.5828C25.9129 26.4213 26.0916 26.2967 26.2922 26.2199C26.5339 26.1275 26.7936 26.1315 26.8945 26.1329L26.9202 26.1331H41.6749C41.7874 26.1331 41.9258 26.1331 42.0467 26.1438C42.1825 26.1557 42.4075 26.1882 42.6338 26.3267C42.9107 26.4962 43.1147 26.762 43.2061 27.0726C43.2809 27.3265 43.2529 27.5511 43.2289 27.6847C43.2074 27.8036 43.171 27.9363 43.1414 28.0444L40.6501 37.1386L40.6431 37.1653C40.6161 37.27 40.5467 37.5401 40.3774 37.7585C40.237 37.9394 40.0514 38.0805 39.8393 38.1677C39.583 38.273 39.3031 38.2685 39.1945 38.2668L39.1667 38.2665L10.1074 38.2667C9.92646 38.2667 9.77056 38.138 9.74328 37.96C9.66539 37.4513 9.625 36.9303 9.625 36.4C9.625 32.0454 12.3481 28.324 16.1914 26.8316C14.4891 25.6513 13.375 23.6885 13.375 21.4667C13.375 17.8584 16.3131 14.9333 19.9375 14.9333C23.5619 14.9333 26.5 17.8584 26.5 21.4667ZM15.25 21.4667C15.25 18.8893 17.3487 16.8 19.9375 16.8C22.5263 16.8 24.625 18.8893 24.625 21.4667C24.625 24.044 22.5263 26.1333 19.9375 26.1333C17.3487 26.1333 15.25 24.044 15.25 21.4667ZM22.0943 36.4C22.1141 36.3427 22.1346 36.2869 22.1533 36.2355L24.6409 29.4252C23.2971 28.5253 21.6789 28 19.9375 28C15.2776 28 11.5 31.7608 11.5 36.4H22.0943ZM24.0886 36.3998L27.1566 27.9998H41.2101L38.9089 36.3998H24.0886Z" fill="#A89859"/>
<path d="M36.8125 14.9333C36.8125 15.9643 35.9731 16.8 34.9375 16.8C33.9019 16.8 33.0625 15.9643 33.0625 14.9333C33.0625 13.9024 33.9019 13.0667 34.9375 13.0667C35.9731 13.0667 36.8125 13.9024 36.8125 14.9333Z" fill="#A89859"/>
<path fill-rule="evenodd" clip-rule="evenodd" d="M34.9375 6.53333C35.4552 6.53333 35.875 6.9512 35.875 7.46666V9.41075C38.2306 9.80417 40.0896 11.655 40.4847 14H42.4375C42.9552 14 43.375 14.4179 43.375 14.9333C43.375 15.4488 42.9552 15.8667 42.4375 15.8667H40.4847C40.0896 18.2117 38.2306 20.0626 35.875 20.4559V22.4C35.875 22.9154 35.4552 23.3333 34.9375 23.3333C34.4198 23.3333 34 22.9154 34 22.4V20.4559C31.6444 20.0626 29.7854 18.2117 29.3903 15.8667H27.4375C26.9198 15.8667 26.5 15.4488 26.5 14.9333C26.5 14.4179 26.9198 14 27.4375 14H29.3903C29.7854 11.655 31.6444 9.80417 34 9.41075V7.46666C34 6.9512 34.4198 6.53333 34.9375 6.53333ZM31.1875 14.9333C31.1875 16.9952 32.8664 18.6667 34.9375 18.6667C37.0086 18.6667 38.6875 16.9952 38.6875 14.9333C38.6875 12.8715 37.0086 11.2 34.9375 11.2C32.8664 11.2 31.1875 12.8715 31.1875 14.9333Z" fill="#A89859"/>
</g>
<defs>
<filter id="filter0_d_13_101" x="0" y="0" width="53" height="64" filterUnits="userSpaceOnUse" color-interpolation-filters="sRGB">
<feFlood flood-opacity="0" result="BackgroundImageFix"/>
<feColorMatrix in="SourceAlpha" type="matrix" values="0 0 0 0 0 0 0 0 0 0 0 0 0 0 0 0 0 0 127 0" result="hardAlpha"/>
<feOffset dy="4"/>
<feGaussianBlur stdDeviation="2"/>
<feComposite in2="hardAlpha" operator="out"/>
<feColorMatrix type="matrix" values="0 0 0 0 0 0 0 0 0 0 0 0 0 0 0 0 0 0 0.25 0"/>
<feBlend mode="normal" in2="BackgroundImageFix" result="effect1_dropShadow_13_101"/>
<feBlend mode="normal" in="SourceGraphic" in2="effect1_dropShadow_13_101" result="shape"/>
</filter>
<clipPath id="clip0_13_101">
<rect width="45" height="56" fill="white" transform="translate(4)"/>
</clipPath>
</defs>
</svg>
