<svg width="32" height="40" viewBox="0 0 32 40" fill="none" xmlns="http://www.w3.org/2000/svg">
<g clip-path="url(#clip0_13_71)">
<path fill-rule="evenodd" clip-rule="evenodd" d="M8 10C8 9.63182 8.29848 9.33334 8.66667 9.33334H15.3333C15.7015 9.33334 16 9.63182 16 10C16 10.3682 15.7015 10.6667 15.3333 10.6667H8.66667C8.29848 10.6667 8 10.3682 8 10Z" fill="#A89859"/>
<path d="M22.6666 10C22.6666 9.63182 22.9652 9.33334 23.3333 9.33334C23.7014 9.33334 24 9.63182 24 10C24 10.3682 23.7014 10.6667 23.3333 10.6667C22.9652 10.6667 22.6666 10.3682 22.6666 10Z" fill="#A89859"/>
<path d="M20 10C20 9.63182 20.2985 9.33334 20.6667 9.33334C21.0348 9.33334 21.3333 9.63182 21.3333 10C21.3333 10.3682 21.0348 10.6667 20.6667 10.6667C20.2985 10.6667 20 10.3682 20 10Z" fill="#A89859"/>
<path d="M17.3334 10C17.3334 9.63182 17.6319 9.33334 18 9.33334C18.3682 9.33334 18.6667 9.63182 18.6667 10C18.6667 10.3682 18.3682 10.6667 18 10.6667C17.6319 10.6667 17.3334 10.3682 17.3334 10Z" fill="#A89859"/>
<path fill-rule="evenodd" clip-rule="evenodd" d="M8 18C8 17.6319 8.29848 17.3333 8.66667 17.3333H15.3333C15.7015 17.3333 16 17.6319 16 18C16 18.3681 15.7015 18.6667 15.3333 18.6667H8.66667C8.29848 18.6667 8 18.3681 8 18Z" fill="#A89859"/>
<path d="M22.6666 18C22.6666 17.6319 22.9652 17.3333 23.3333 17.3333C23.7014 17.3333 24 17.6319 24 18C24 18.3681 23.7014 18.6667 23.3333 18.6667C22.9652 18.6667 22.6666 18.3681 22.6666 18Z" fill="#A89859"/>
<path d="M20 18C20 17.6319 20.2985 17.3333 20.6667 17.3333C21.0348 17.3333 21.3333 17.6319 21.3333 18C21.3333 18.3681 21.0348 18.6667 20.6667 18.6667C20.2985 18.6667 20 18.3681 20 18Z" fill="#A89859"/>
<path d="M17.3334 18C17.3334 17.6319 17.6319 17.3333 18 17.3333C18.3682 17.3333 18.6667 17.6319 18.6667 18C18.6667 18.3681 18.3682 18.6667 18 18.6667C17.6319 18.6667 17.3334 18.3681 17.3334 18Z" fill="#A89859"/>
<path fill-rule="evenodd" clip-rule="evenodd" d="M24.8 6.66666H7.20004C6.16911 6.66666 5.33337 7.50239 5.33337 8.53332V11.4667C5.33337 12.4976 6.16911 13.3333 7.20004 13.3333H7.33336L7.33337 14.6667H7.20004C6.16911 14.6667 5.33337 15.5024 5.33337 16.5333V19.4667C5.33337 20.4976 6.16911 21.3333 7.20004 21.3333H15.3334V23.4472C14.7651 23.648 14.3147 24.0984 14.1139 24.6667H6.66671C6.29852 24.6667 6.00004 24.9652 6.00004 25.3333C6.00004 25.7015 6.29852 26 6.66671 26H14.1139C14.3884 26.7768 15.1292 27.3333 16 27.3333C16.8708 27.3333 17.6116 26.7768 17.8862 26H25.3334C25.7015 26 26 25.7015 26 25.3333C26 24.9652 25.7015 24.6667 25.3334 24.6667H17.8862C17.6854 24.0984 17.235 23.648 16.6667 23.4472V21.3333H24.8C25.831 21.3333 26.6667 20.4976 26.6667 19.4667V16.5333C26.6667 15.5024 25.831 14.6667 24.8 14.6667H24.6667V13.3333H24.8C25.831 13.3333 26.6667 12.4976 26.6667 11.4667V8.53332C26.6667 7.50239 25.831 6.66666 24.8 6.66666ZM16.6667 25.3333C16.6667 24.9652 16.3682 24.6667 16 24.6667C15.6319 24.6667 15.3334 24.9652 15.3334 25.3333C15.3334 25.7015 15.6319 26 16 26C16.3682 26 16.6667 25.7015 16.6667 25.3333ZM23.3334 13.3333H8.66669L8.66671 14.6667H23.3334V13.3333ZM6.66671 8.53332C6.66671 8.23878 6.90549 7.99999 7.20004 7.99999H24.8C25.0946 7.99999 25.3334 8.23878 25.3334 8.53332V11.4667C25.3334 11.7612 25.0946 12 24.8 12H7.20004C6.90549 12 6.66671 11.7612 6.66671 11.4667V8.53332ZM6.66671 16.5333C6.66671 16.2388 6.90549 16 7.20004 16H24.8C25.0946 16 25.3334 16.2388 25.3334 16.5333V19.4667C25.3334 19.7612 25.0946 20 24.8 20H7.20004C6.90549 20 6.66671 19.7612 6.66671 19.4667V16.5333Z" fill="#A89859"/>
</g>
<defs>
<clipPath id="clip0_13_71">
<rect width="32" height="40" fill="white"/>
</clipPath>
</defs>
</svg>
