<svg width="44" height="55" viewBox="0 0 44 55" fill="none" xmlns="http://www.w3.org/2000/svg">
<g clip-path="url(#clip0_13_85)">
<path fill-rule="evenodd" clip-rule="evenodd" d="M13.6634 13.5201C14.2853 12.8631 14.6667 11.9761 14.6667 11C14.6667 8.97497 13.025 7.33334 11 7.33334C8.97496 7.33334 7.33333 8.97497 7.33333 11C7.33333 11.9761 7.71472 12.8631 8.33661 13.5201C6.64501 14.4581 5.5 16.262 5.5 18.3333C5.5 18.9306 5.59519 19.5056 5.7712 20.044C5.79535 20.1177 5.86491 20.1667 5.9426 20.1667H16.0574C16.1351 20.1667 16.2046 20.1177 16.2288 20.044C16.4048 19.5056 16.5 18.9306 16.5 18.3333C16.5 16.262 15.355 14.4581 13.6634 13.5201ZM11 12.8333C12.0125 12.8333 12.8333 12.0125 12.8333 11C12.8333 9.9875 12.0125 9.16668 11 9.16668C9.98749 9.16668 9.16667 9.9875 9.16667 11C9.16667 12.0125 9.98749 12.8333 11 12.8333ZM14.6667 18.3333C14.6667 16.3083 13.025 14.6667 11 14.6667C8.97496 14.6667 7.33333 16.3083 7.33333 18.3333H14.6667Z" fill="#A89859"/>
<path fill-rule="evenodd" clip-rule="evenodd" d="M35.6635 13.5201C36.2853 12.8631 36.6667 11.9761 36.6667 11C36.6667 8.97497 35.0251 7.33334 33 7.33334C30.9749 7.33334 29.3333 8.97497 29.3333 11C29.3333 11.9761 29.7147 12.8631 30.3365 13.5201C28.6449 14.4581 27.5 16.262 27.5 18.3333C27.5 18.9306 27.5951 19.5056 27.7711 20.044C27.7953 20.1177 27.8648 20.1667 27.9426 20.1667H38.0574C38.1352 20.1667 38.2047 20.1177 38.2289 20.044C38.4049 19.5056 38.5 18.9306 38.5 18.3333C38.5 16.262 37.3551 14.4581 35.6635 13.5201ZM33 12.8333C34.0125 12.8333 34.8333 12.0125 34.8333 11C34.8333 9.9875 34.0125 9.16668 33 9.16668C31.9875 9.16668 31.1667 9.9875 31.1667 11C31.1667 12.0125 31.9875 12.8333 33 12.8333ZM36.6667 18.3333C36.6667 16.3083 35.0251 14.6667 33 14.6667C30.9749 14.6667 29.3333 16.3083 29.3333 18.3333H36.6667Z" fill="#A89859"/>
<path fill-rule="evenodd" clip-rule="evenodd" d="M25.6667 29.3333C25.6667 30.3094 25.2853 31.1964 24.6635 31.8534C26.3551 32.7914 27.5 34.5954 27.5 36.6667C27.5 37.264 27.4049 37.8389 27.2289 38.3773C27.2047 38.451 27.1352 38.5 27.0574 38.5H16.9426C16.8649 38.5 16.7954 38.451 16.7712 38.3773C16.5952 37.8389 16.5 37.264 16.5 36.6667C16.5 34.5954 17.645 32.7914 19.3365 31.8534C18.7147 31.1964 18.3333 30.3094 18.3333 29.3333C18.3333 27.3082 19.9749 25.6667 22 25.6667C24.0251 25.6667 25.6667 27.3082 25.6667 29.3333ZM22 31.1667C23.0125 31.1667 23.8333 30.3459 23.8333 29.3333C23.8333 28.3208 23.0125 27.5 22 27.5C20.9875 27.5 20.1667 28.3208 20.1667 29.3333C20.1667 30.3459 20.9875 31.1667 22 31.1667ZM18.3333 36.6667H25.6667C25.6667 34.6416 24.0251 33 22 33C19.9749 33 18.3333 34.6416 18.3333 36.6667Z" fill="#A89859"/>
<path fill-rule="evenodd" clip-rule="evenodd" d="M18.4873 17.8249C18.7682 17.4037 19.3373 17.2899 19.7584 17.5707L22 19.065L24.2414 17.5707C24.6627 17.2899 25.2318 17.4037 25.5127 17.8249C25.7935 18.2462 25.6797 18.8153 25.2584 19.0962L22.9167 20.6573V22.9168C22.9167 23.423 22.5062 23.8335 22 23.8335C21.4938 23.8335 21.0833 23.423 21.0833 22.9168V20.6573L18.7414 19.0962C18.3203 18.8153 18.2065 18.2462 18.4873 17.8249Z" fill="#A89859"/>
</g>
<defs>
<clipPath id="clip0_13_85">
<rect width="44" height="55" fill="white"/>
</clipPath>
</defs>
</svg>
