<svg width="34" height="42" viewBox="0 0 34 42" fill="none" xmlns="http://www.w3.org/2000/svg">
<g clip-path="url(#clip0_13_92)">
<path fill-rule="evenodd" clip-rule="evenodd" d="M14.875 7.7C14.875 7.3134 15.1922 7 15.5833 7H18.4167C18.8078 7 19.125 7.3134 19.125 7.7C19.125 8.0866 18.8078 8.4 18.4167 8.4H15.5833C15.1922 8.4 14.875 8.0866 14.875 7.7Z" fill="#A89859"/>
<path fill-rule="evenodd" clip-rule="evenodd" d="M7.79163 18.9C7.79163 18.5135 8.10876 18.2 8.49996 18.2H15.5833C15.9744 18.2 16.2916 18.5135 16.2916 18.9C16.2916 19.2866 15.9744 19.6 15.5833 19.6H8.49996C8.10876 19.6 7.79163 19.2866 7.79163 18.9Z" fill="#A89859"/>
<path fill-rule="evenodd" clip-rule="evenodd" d="M7.79163 23.1C7.79163 22.7135 8.10876 22.4 8.49996 22.4H14.875C15.2661 22.4 15.5833 22.7135 15.5833 23.1C15.5833 23.4866 15.2661 23.8 14.875 23.8H8.49996C8.10876 23.8 7.79163 23.4866 7.79163 23.1Z" fill="#A89859"/>
<path fill-rule="evenodd" clip-rule="evenodd" d="M7.79163 14.7C7.79163 14.3135 8.10876 14 8.49996 14H11.3333C11.7245 14 12.0416 14.3135 12.0416 14.7C12.0416 15.0865 11.7245 15.4 11.3333 15.4H8.49996C8.10876 15.4 7.79163 15.0865 7.79163 14.7Z" fill="#A89859"/>
<path fill-rule="evenodd" clip-rule="evenodd" d="M18.4167 27.9999C18.4326 27.9999 18.4483 27.9994 18.4639 27.9984C19.0599 28.4413 19.8566 28.6217 20.6502 28.3385C21.4808 30.0877 24.1059 30.0877 24.9366 28.3385C26.7756 28.995 28.6319 27.1605 27.9676 25.3432C29.7376 24.5222 29.7376 21.928 27.9676 21.1072C28.4776 19.712 27.5019 18.3067 26.1891 18.0262C26.2017 17.9739 26.2084 17.9191 26.2084 17.863V9.19232C26.2087 9.18504 26.2121 9.07384 26.1849 8.96181C26.164 8.8761 26.1297 8.79416 26.0831 8.71901C26.0222 8.62074 25.9399 8.54427 25.9345 8.53933L21.817 4.47027C21.8149 4.46792 21.7984 4.4507 21.7722 4.42703C21.6427 4.28748 21.4567 4.19999 21.25 4.19999C21.2398 4.19999 21.2295 4.2002 21.2193 4.20063C21.1837 4.19907 21.1594 4.19981 21.1561 4.19992H12.9767L12.9689 4.19991C12.938 4.19986 12.8801 4.19978 12.826 4.20415C12.7586 4.20959 12.6375 4.22518 12.5058 4.29147C12.3459 4.37201 12.2159 4.5005 12.1344 4.65856C12.0673 4.78866 12.0515 4.90832 12.046 4.97496C12.0416 5.02847 12.0417 5.08566 12.0417 5.11616V5.12392V9.79992H5.89339L5.88554 9.7999C5.85467 9.79986 5.79681 9.79978 5.74267 9.80415C5.67524 9.80959 5.55415 9.82518 5.4225 9.89147C5.26256 9.97201 5.13252 10.1005 5.05104 10.2586C4.98396 10.3887 4.96819 10.5083 4.96268 10.575C4.95825 10.6285 4.95833 10.6857 4.95839 10.7162V10.7239V27.0758V27.0837C4.95833 27.1142 4.95825 27.1713 4.96268 27.2248C4.96819 27.2915 4.98396 27.4111 5.05104 27.5412C5.13252 27.6993 5.26256 27.8278 5.4225 27.9083C5.55415 27.9746 5.67524 27.9902 5.74267 27.9957C5.79681 28 5.85467 28 5.88554 28L5.89339 27.9999H18.4167ZM21.9584 6.58986V8.39999H23.7901L21.9584 6.58986ZM24.7917 9.79999H21.4767H21.4688C21.438 9.80003 21.3801 9.80013 21.326 9.79575C21.2585 9.7903 21.1374 9.77472 21.0058 9.70843C20.8459 9.6279 20.7158 9.49939 20.6344 9.34133C20.5673 9.21123 20.5515 9.09158 20.546 9.02494C20.5416 8.97144 20.5417 8.91425 20.5417 8.88375V8.87599V5.59992H13.4584V9.79992L14.0732 9.7999C14.0765 9.79981 14.1004 9.79907 14.136 9.80063C14.1462 9.8002 14.1564 9.79999 14.1667 9.79999C14.3734 9.79999 14.5594 9.88748 14.6889 10.027C14.7151 10.0507 14.7317 10.0682 14.7339 10.0705L15.8769 11.2H22.6667C23.0578 11.2 23.375 11.5134 23.375 11.9C23.375 12.2866 23.0578 12.6 22.6667 12.6H17.2936L18.8515 14.1396C18.8539 14.1418 18.8713 14.1579 18.8953 14.1839C19.0365 14.3119 19.125 14.4957 19.125 14.7C19.125 14.7103 19.1249 14.7208 19.1243 14.7311C19.1259 14.7658 19.1252 14.7894 19.125 14.7927V15.4H22.6667C23.0578 15.4 23.375 15.7134 23.375 16.1C23.375 16.4865 23.0578 16.8 22.6667 16.8H19.125V18.1021C19.5951 17.9403 20.1234 17.9239 20.6502 18.1119C21.4373 16.4543 23.8357 16.3675 24.7917 17.8512V9.79999ZM15.0756 12.388C15.0802 12.3927 15.0848 12.3973 15.0895 12.4018L16.7068 14H14.875V12.1899L15.0756 12.388ZM17.7084 16.1052V19.362C17.4576 19.8818 17.3957 20.4954 17.6193 21.1072C15.8491 21.928 15.8491 24.5222 17.6193 25.3432C17.4624 25.7722 17.4461 26.2021 17.5368 26.5999H6.37505V11.1999H13.4584V14.476V14.4837C13.4583 14.5142 13.4582 14.5715 13.4627 14.6249C13.4682 14.6916 13.484 14.8113 13.551 14.9413C13.6325 15.0994 13.7626 15.2279 13.9225 15.3084C14.0542 15.3746 14.1752 15.3903 14.2426 15.3958C14.2968 15.4001 14.3547 15.4 14.3856 15.4H14.3934H17.7084V16.0948V16.1V16.1052ZM23.7347 18.9435C23.5082 17.9522 22.0786 17.9522 21.8521 18.9435C21.7052 19.5861 20.9591 19.8916 20.3954 19.5398C19.5258 18.9971 18.515 19.996 19.0641 20.8554C19.4201 21.4124 19.111 22.1498 18.4608 22.295C17.4576 22.5188 17.4576 23.9316 18.4608 24.1554C19.111 24.3006 19.4201 25.038 19.0641 25.5949C18.515 26.4544 19.5258 27.4533 20.3954 26.9105C20.9591 26.5588 21.7052 26.8643 21.8521 27.5068C22.0786 28.4982 23.5082 28.4982 23.7347 27.5068C23.8816 26.8643 24.6278 26.5588 25.1913 26.9105C26.061 27.4533 27.0718 26.4544 26.5226 25.5949C26.1667 25.038 26.4758 24.3006 27.1259 24.1554C28.1292 23.9316 28.1292 22.5188 27.1259 22.295C26.4758 22.1498 26.1667 21.4124 26.5226 20.8554C27.0718 19.996 26.061 18.9971 25.1913 19.5398C24.6278 19.8916 23.8816 19.5861 23.7347 18.9435Z" fill="#A89859"/>
<path fill-rule="evenodd" clip-rule="evenodd" d="M22.7939 24.6252C23.5763 24.6252 24.2106 23.9982 24.2106 23.2252C24.2106 22.4519 23.5763 21.8252 22.7939 21.8252C22.0116 21.8252 21.3772 22.4519 21.3772 23.2252C21.3772 23.9982 22.0116 24.6252 22.7939 24.6252ZM22.7939 26.0252C24.3588 26.0252 25.6272 24.7715 25.6272 23.2252C25.6272 21.6787 24.3588 20.4252 22.7939 20.4252C21.2292 20.4252 19.9606 21.6787 19.9606 23.2252C19.9606 24.7715 21.2292 26.0252 22.7939 26.0252Z" fill="#A89859"/>
</g>
<defs>
<clipPath id="clip0_13_92">
<rect width="34" height="42" fill="white"/>
</clipPath>
</defs>
</svg>
