<svg width="38" height="46" viewBox="0 0 38 46" fill="none" xmlns="http://www.w3.org/2000/svg">
<path d="M3.79997 11.7436C3.79997 12.0258 3.56786 12.2547 3.28178 12.2547C2.99571 12.2547 2.7636 12.0258 2.7636 11.7436V8.80871C2.7636 8.31092 2.97141 7.85569 3.30338 7.52695C3.63939 7.19685 4.09954 6.99188 4.60422 6.99188H33.3944C33.8991 6.99188 34.3606 7.19686 34.6939 7.52429C35.0286 7.85571 35.2364 8.3096 35.2364 8.80738V26.6125C35.2364 27.1102 35.0286 27.5655 34.6966 27.8942C34.3606 28.2243 33.9004 28.4293 33.3957 28.4293H22.8093V30.141H25.1101C25.5486 30.141 25.9481 30.3193 26.2369 30.6028C26.5283 30.8903 26.7078 31.2843 26.7078 31.7169V32.3212C26.7078 32.7551 26.5283 33.1491 26.2396 33.4339C25.9508 33.7187 25.55 33.8958 25.1101 33.8958H12.8938C12.4539 33.8958 12.0531 33.7187 11.7643 33.4339C11.4755 33.149 11.2961 32.7537 11.2961 32.3212V31.7169C11.2961 31.2843 11.4755 30.8903 11.7643 30.6055C12.0558 30.3193 12.4552 30.141 12.8938 30.141H15.1932V28.4293H4.60674C4.10207 28.4293 3.64054 28.2243 3.30724 27.8969C2.97259 27.5654 2.76478 27.1116 2.76478 26.6138V16.1213C2.76478 15.8392 2.99688 15.6102 3.28296 15.6102C3.56904 15.6102 3.80114 15.8392 3.80114 16.1213V26.6138C3.80114 26.8321 3.89155 27.0317 4.03729 27.1755C4.18303 27.3192 4.38409 27.4084 4.60674 27.4084H33.3955C33.6168 27.4084 33.8193 27.3192 33.965 27.1755C34.1107 27.0317 34.2011 26.8334 34.2011 26.6138V8.80871C34.2011 8.59043 34.1107 8.39076 33.965 8.24704C33.8192 8.10328 33.6182 8.01411 33.3955 8.01411H4.60536C4.38405 8.01411 4.18162 8.10329 4.03591 8.24704C3.8902 8.39078 3.79976 8.5891 3.79976 8.80871L3.79997 11.7436ZM18.7799 26.6524C18.4938 26.6524 18.2617 26.4235 18.2617 26.1413C18.2617 25.8591 18.4938 25.6302 18.7799 25.6302H19.2185C19.5045 25.6302 19.7366 25.8591 19.7366 26.1413C19.7366 26.4235 19.5045 26.6524 19.2185 26.6524H18.7799ZM21.3708 26.6524C21.0847 26.6524 20.8526 26.4235 20.8526 26.1413C20.8526 25.8591 21.0847 25.6302 21.3708 25.6302H21.8094C22.0955 25.6302 22.3276 25.8591 22.3276 26.1413C22.3276 26.4235 22.0955 26.6524 21.8094 26.6524H21.3708ZM16.189 26.6524C15.9029 26.6524 15.6708 26.4235 15.6708 26.1413C15.6708 25.8591 15.9029 25.6302 16.189 25.6302H16.6276C16.9136 25.6302 17.1457 25.8591 17.1457 26.1413C17.1457 26.4235 16.9136 26.6524 16.6276 26.6524H16.189ZM22.3032 31.1645H12.8923C12.7371 31.1645 12.5968 31.227 12.4956 31.3269C12.3944 31.4267 12.331 31.5651 12.331 31.7182V32.3224C12.331 32.4742 12.3944 32.6126 12.4956 32.7124C12.5968 32.8122 12.7385 32.8748 12.8923 32.8748H25.1086C25.2625 32.8748 25.4042 32.8122 25.5054 32.7124C25.6066 32.6126 25.67 32.4728 25.67 32.3224V31.7182C25.67 31.5651 25.6066 31.4267 25.5054 31.3269C25.4042 31.227 25.2625 31.1645 25.1086 31.1645H22.3032ZM21.7715 28.4306H16.228V30.1423H21.7715V28.4306ZM5.0978 8.78483H32.9C33.1861 8.78483 33.4182 9.01376 33.4182 9.29594V24.3632C33.4182 24.6453 33.1861 24.8743 32.9 24.8743H5.0978C4.81173 24.8743 4.57962 24.6453 4.57962 24.3632V9.29594C4.57962 9.01376 4.81173 8.78483 5.0978 8.78483ZM32.3818 9.80705H5.61599V23.852H32.3818V9.80705ZM3.7982 13.9678C3.7982 14.25 3.5661 14.4789 3.28002 14.4789C2.99394 14.4789 2.76184 14.25 2.76184 13.9678V13.896C2.76184 13.6138 2.99394 13.3848 3.28002 13.3848C3.5661 13.3848 3.7982 13.6138 3.7982 13.896V13.9678Z" fill="#A89859"/>
</svg>
